<svg xmlns="http://www.w3.org/2000/svg" viewBox="0 0 258.46 62.03"><defs><style>.cls-1{fill:#498f43;}.cls-2{fill:#3c4d5f;}.cls-3{fill:none;stroke:#498f43;stroke-miterlimit:10;stroke-width:1.33px;}.cls-4{fill:#3b4c5e;}</style></defs><title>Logo (en)</title><g id="Слой_2" data-name="Слой 2"><g id="Layer_1" data-name="Layer 1"><path id="_Составной_контур_" data-name="&lt;Составной контур&gt;" class="cls-1" d="M15.65,23.45H41.59v2.08H26v17H23.68v-17h-8Z"/><g id="_Группа_" data-name="&lt;Группа&gt;"><path id="_Составной_контур_2" data-name="&lt;Составной контур&gt;" class="cls-2" d="M41.86,34.78a7.42,7.42,0,0,1-7.59,7.71h-6.6V27.25h6.6A7.35,7.35,0,0,1,41.86,34.78Zm-7.59-5H30.16V40h4.12a4.93,4.93,0,0,0,5.11-5.21A4.94,4.94,0,0,0,34.27,29.73Z"/></g><g id="_Группа_2" data-name="&lt;Группа&gt;"><path class="cls-3" d="M49.34,14.92c6.21,0,8.75,4.4,5.65,9.78L36.15,57.33c-3.11,5.38-8.19,5.38-11.29,0L6,24.7c-3.11-5.38-.56-9.78,5.65-9.78Z"/></g><path class="cls-2" d="M37.21,13A8.2,8.2,0,0,0,23.8,13Z"/><g id="_Группа_3" data-name="&lt;Группа&gt;"><path id="_Контур_" data-name="&lt;Контур&gt;" class="cls-2" d="M12.58,13h1.06S17.87,1,30.5,1,47.36,13,47.36,13h1.06S44.22,0,30.5,0,12.58,13,12.58,13Z"/></g><path class="cls-2" d="M15.72,11.32,15,13h5.37a11.52,11.52,0,0,1,20.25,0H46l-.71-1.73-2.88.41a13.76,13.76,0,0,0-1.08-1.61l1.44-2.49L41.27,6.15,38.8,7.62a13.77,13.77,0,0,0-1.46-1l.4-2.85L35.8,3,34.06,5.3a13.8,13.8,0,0,0-1.9-.37l-.74-2.76h-2.1l-.7,2.78a13.81,13.81,0,0,0-1.72.35L25.16,3l-1.93.8.41,2.88A13.76,13.76,0,0,0,22,7.73L19.54,6.29,18.07,7.78l1.47,2.47a13.83,13.83,0,0,0-1,1.46Z"/><path class="cls-2" d="M19.36,51.53a1.89,1.89,0,1,1-1.53-2.65l-.75-1.3a5.86,5.86,0,0,1-.87,0c-.2,0-.41-.06-.43-.35a.55.55,0,0,1,.27-.58,2.6,2.6,0,0,0,.5,0l-.92-1.59A5,5,0,0,1,12,38.82l-.9-1.56a6.83,6.83,0,0,0-.37.71c-.11.25-.38.14-.6,0s-.2-.35-.14-.54a4.79,4.79,0,0,1,.57-1.13L9.83,35A1.89,1.89,0,1,1,8.3,32.37L6.17,28.68c-.15.09-.15.35,0,.73.23.67,0,.72-.54.56-.77-.23-.88-.1-.54.73.26.63.07.67-.43.58-.79-.14-.89,0-.48.77.32.6.21.79-.37.69s-.82.17-.41.8c.3.46.29.75-.26.77s-.69.31-.28.85.38.74-.15.86-.67.42-.16.91.36.69-.09.86-.67.48-.07.92.51.64,0,.91-.41.69.18,1,.62.45.16.81c-.65.51-.62.63.18,1,.54.27.54.46.16.8s-.42.82.33,1c.52.11.67.36.3.78s-.38.87.39,1c.53.06.68.3.4.76-.37.62-.21.93.52.9s.66.27.44.76c-.29.65,0,.91.6.79s.71.12.55.69c-.23.79.14.93.74.73s.65,0,.57.53c-.11.69.08,1,.76.76.47-.18.67,0,.66.55,0,.75.32.88.83.56s.67-.08.71.5.31.79.75.43.71-.32.87.39.53.68.85.25.61-.33.81.28.51.79.85.23.58-.35.86.16.63.6.86,0,.46-.41.76.06.72.7.92,0c.16-.55.41-.52.77-.1s.77.61.89-.14.32-.65.76-.15c.29.33.5.41.64.3Zm-14-11A1.89,1.89,0,1,1,8,41.23,1.89,1.89,0,0,1,5.39,40.54Zm4.22-.35c0-.17-.07-.45.08-.52a.52.52,0,0,1,.76.5,9.88,9.88,0,0,0,.47,2.24.44.44,0,0,1-.34.65c-.32.08-.35-.25-.44-.46A6.77,6.77,0,0,1,9.61,40.2ZM7,45.95a1.89,1.89,0,1,1,2.58.69A1.89,1.89,0,0,1,7,45.95ZM11.6,45c-.24-.28-.26-.48,0-.63s.41,0,.6.14a8,8,0,0,0,1.7,1.36.55.55,0,0,1,.25.77c-.13.3-.37.15-.57,0A7.14,7.14,0,0,1,11.6,45Zm-.76,5a1.89,1.89,0,1,1,2.58.69A1.89,1.89,0,0,1,10.84,50Z"/><g id="_Группа_4" data-name="&lt;Группа&gt;"><path id="_Контур_2" data-name="&lt;Контур&gt;" class="cls-2" d="M22.79,57.46l-.53-.92S9.71,58.9,3.4,48s2-20.62,2-20.62l-.53-.92s-9.18,10.16-2.33,22S22.79,57.46,22.79,57.46Z"/></g><g id="_Группа_5" data-name="&lt;Группа&gt;"><path id="_Контур_3" data-name="&lt;Контур&gt;" class="cls-2" d="M56.17,26.44l-.53.92S64,37,57.64,48s-18.86,8.58-18.86,8.58l-.53.92s13.39,2.87,20.25-9S56.17,26.44,56.17,26.44Z"/></g><path class="cls-2" d="M40.19,54.87c.47-.54.62-.36.75.19.18.78.35.81.9.1.42-.54.54-.39.71.08.28.75.45.76.91,0,.36-.57.58-.58.79,0s.55.63.9,0c.25-.49.51-.62.8-.16s.61.44.87-.18c.19-.47.45-.69.82-.3s.69.37.87-.31.41-.65.79-.35.75.34.83-.4.3-.76.77-.49.8,0,.75-.64.08-.76.62-.54c.76.31.86.23.8-.67,0-.6.13-.7.61-.54.65.21.92-.05.69-.78-.16-.51,0-.76.52-.65s.94-.1.64-.82c-.21-.49-.08-.74.46-.73.72,0,.91-.29.52-.9s-.09-.71.44-.76c.7-.07.8-.43.38-.91s-.25-.68.32-.82c.8-.2.74-.59.26-1s-.3-.57.18-.76c.65-.25.85-.58.28-1-.39-.32-.36-.57.14-.84.66-.36.6-.72.06-1s-.41-.54.07-.86.53-.66,0-.87-.63-.46-.1-.95.33-.8-.21-.87c-.7-.08-.59-.36-.16-.84s.44-.84-.23-.85-.59-.33-.29-.82.2-.85-.4-.76-.59-.2-.33-.68.24-1-.46-.79c-.55.14-.65-.1-.47-.61s.14-1-.57-.7-.72,0-.51-.58c.14-.42.1-.64-.06-.7l-2,3.42a8.72,8.72,0,0,1,2.23,4.25,5.76,5.76,0,0,1-.51,4.16c-.37.67-.91,1.09-1.61.85a1,1,0,0,1-.69-1.59,7.48,7.48,0,0,0,0-6.73L49,38.83a5,5,0,0,1-3.61,6.25L39.55,55.22C39.7,55.31,39.93,55.18,40.19,54.87Zm3.92-5c.33-.84.91-1.29,1.59-1,2.53,1.2,4.84.08,7.19-1.54.48-.34,1-.73,1.49-1.1a12.7,12.7,0,0,1-6.6,5.42,3.79,3.79,0,0,1-3.14-.14A1.22,1.22,0,0,1,44.11,49.87Z"/><path class="cls-4" d="M184.07,27.1h12.16q2.69,0,3.67,1,1.44,1.49,1.44,6.26T199.9,40.6q-1,1-3.67,1H184.07Zm2.16,12.57h10a2.47,2.47,0,0,0,2.36-1.07,9.82,9.82,0,0,0,.6-4.24,9.67,9.67,0,0,0-.62-4.23A2.46,2.46,0,0,0,196.21,29h-10Z"/><path class="cls-4" d="M220.84,27.1,213,41.61H210.4l-7.9-14.51h2.27l6.76,12.57h.32L218.6,27.1Z"/><path class="cls-4" d="M230.4,41.82a23.28,23.28,0,0,1-6.31-.58A3.25,3.25,0,0,1,221.8,39a19.8,19.8,0,0,1-.34-4.64,20.69,20.69,0,0,1,.32-4.64,3.28,3.28,0,0,1,2.31-2.25,34.15,34.15,0,0,1,12.62,0,3.3,3.3,0,0,1,2.3,2.23,19.92,19.92,0,0,1,.34,4.66A20.4,20.4,0,0,1,239,39a3.25,3.25,0,0,1-2.29,2.24A23.4,23.4,0,0,1,230.4,41.82Zm0-1.95q5,0,5.89-.74t.89-4.76q0-4-.88-4.78t-5.9-.74q-5,0-5.9.74t-.88,4.78q0,4,.89,4.75T230.4,39.87Z"/><path class="cls-4" d="M241.61,27.1h13a3.41,3.41,0,0,1,2.84,1.26,5.28,5.28,0,0,1,1,3.36,5.06,5.06,0,0,1-.57,2.69,2.76,2.76,0,0,1-1.29,1,3.19,3.19,0,0,1,1.23.83,2.6,2.6,0,0,1,.64,1.78v3.57h-2.16V38a1.42,1.42,0,0,0-.69-1.2,2.83,2.83,0,0,0-1.66-.48H243.77v5.26h-2.16Zm2.16,7.31h10a3,3,0,0,0,1.73-.4,2.68,2.68,0,0,0,.82-2.28,2.66,2.66,0,0,0-.8-2.25,3,3,0,0,0-1.76-.43h-10Z"/><path class="cls-1" d="M69.93,27.08H85.09v2H78.6V41.61H76.44V29H69.93Z"/><path class="cls-1" d="M87.62,27.08h13.89v2H89.78v4.24h11.33v2H89.78v4.43h11.73v2H87.62Z"/><path class="cls-1" d="M106.05,34.37q0,4,.85,4.74t5.2.76q4.05,0,4.94-.45t1-2.86h2.16q0,3.46-1.43,4.36t-6.71.9q-5.37,0-6.79-1.27t-1.42-6.17q0-4.92,1.41-6.2t6.8-1.28q5.3,0,6.72.88t1.42,4.36h-2.16q0-2.33-1-2.81t-5-.48q-4.37,0-5.21.75T106.05,34.37Z"/><path class="cls-1" d="M123,27.09h2.16v6.17h12.47V27.09h2.16V41.61h-2.16V35.21H125.19v6.41H123Z"/><path class="cls-1" d="M142.52,27.08h3.16l12.45,12.73V27.08h2.16V41.61H157L144.68,29V41.61h-2.16Z"/><path class="cls-1" d="M172,41.83a23.33,23.33,0,0,1-6.32-.58A3.25,3.25,0,0,1,163.37,39a19.81,19.81,0,0,1-.34-4.64,20.62,20.62,0,0,1,.32-4.65,3.28,3.28,0,0,1,2.31-2.25,23.06,23.06,0,0,1,6.32-.59,23.21,23.21,0,0,1,6.31.58,3.31,3.31,0,0,1,2.3,2.24,20,20,0,0,1,.34,4.67,20.41,20.41,0,0,1-.32,4.62,3.25,3.25,0,0,1-2.29,2.24A23.45,23.45,0,0,1,172,41.83Zm0-2q5,0,5.9-.74t.89-4.76q0-4-.88-4.78T172,28.85q-5,0-5.91.74t-.88,4.78q0,4,.89,4.75T172,39.87Z"/></g></g></svg>