<?xml version="1.0" encoding="UTF-8" standalone="no"?>
<svg width="231px" height="61px" viewBox="0 0 231 61" version="1.1" xmlns="http://www.w3.org/2000/svg" xmlns:xlink="http://www.w3.org/1999/xlink">
    <!-- Generator: Sketch 39.1 (31720) - http://www.bohemiancoding.com/sketch -->
    <title>Logo (ru)</title>
    <desc>Created with Sketch.</desc>
    <defs></defs>
    <g id="Page-1" stroke="none" stroke-width="1" fill="none" fill-rule="evenodd">
        <g id="Logo-(ru)">
            <g id="Слой_2">
                <g id="Layer_1">
                    <path d="M159.75728,31.1709677 L159.75728,26.4967742 L173.849247,26.4967742 L173.849247,38.6032258 L174.815774,38.6032258 L174.815774,43.8677419 L172.88272,43.8677419 L172.88272,40.4903226 L159.650962,40.4903226 L159.650962,43.8677419 L157.717908,43.8677419 L157.717908,38.6032258 L158.742427,38.6032258 C159.078154,37.3678883 159.323656,36.1097272 159.476987,34.8387097 C159.643584,33.6228408 159.737183,32.3980603 159.75728,31.1709677 L159.75728,31.1709677 Z M171.771213,28.383871 L161.844979,28.383871 L161.844979,31.1709677 C161.833832,32.4389585 161.753167,33.7053804 161.603347,34.9645161 C161.479625,36.194562 161.266423,37.4139288 160.965439,38.6129032 L171.771213,38.6129032 L171.771213,28.383871 Z" id="Shape" fill="#3B4C5E"></path>
                    <path d="M192.551548,36.3870968 C192.632247,37.5398623 192.200752,38.6695328 191.372385,39.4741935 C190.421519,40.1968778 189.237153,40.5416032 188.047531,40.4419355 L176.874477,40.4419355 L176.874477,26.4580645 L187.602929,26.4580645 C188.790864,26.3765538 189.96635,26.7424134 190.898787,27.483871 C191.699818,28.2526726 192.120774,29.3364907 192.048954,30.4451613 C192.200622,31.6020644 191.553173,32.7156444 190.473515,33.1548387 C191.044941,33.3401718 191.544781,33.6986148 191.903975,34.1806452 C192.354963,34.8254571 192.582432,35.6005041 192.551548,36.3870968 L192.551548,36.3870968 Z M189.95159,30.4354839 C189.986418,29.8964574 189.809533,29.3651371 189.458661,28.9548387 C188.944789,28.4998831 188.266972,28.2759922 187.583598,28.3354839 L178.942845,28.3354839 L178.942845,32.3322581 L187.583598,32.3322581 C188.234111,32.3961337 188.886599,32.2319515 189.429665,31.8677419 C189.802003,31.4921225 189.992538,30.9727907 189.95159,30.4451613 L189.95159,30.4354839 Z M178.942845,34.2096774 L178.942845,38.5935484 L188.066862,38.5935484 C188.719311,38.6431726 189.364115,38.4268045 189.854937,37.9935484 C190.665299,37.0947377 190.665299,35.727843 189.854937,34.8290323 C189.36919,34.3928234 188.727364,34.1727917 188.076527,34.2193548 L178.942845,34.2096774 Z" id="Shape" fill="#3B4C5E"></path>
                    <path d="M203.821255,40.6451613 C201.772272,40.7374967 199.720307,40.548648 197.722469,40.083871 C196.66174,39.8078771 195.822297,38.9967417 195.509121,37.9451613 C195.223812,36.4665065 195.113512,34.959341 195.180502,33.4548387 C195.113303,31.9511653 195.217065,30.444717 195.489791,28.9645161 C195.8029,27.8999372 196.650097,27.0773799 197.722469,26.7967742 C201.749776,26.038119 205.883069,26.038119 209.910377,26.7967742 C210.973802,27.0836037 211.814199,27.8994476 212.133389,28.9548387 C212.418526,30.4400462 212.528818,31.9535979 212.462008,33.4645161 C212.527841,34.95854 212.424081,36.455218 212.15272,37.9258065 C211.845334,38.9848438 211.004867,39.8043188 209.939372,40.083871 C207.93503,40.5489687 205.876638,40.7378104 203.821255,40.6451613 L203.821255,40.6451613 Z M203.821255,38.7580645 C207.043013,38.7580645 208.937406,38.5193548 209.504435,38.0419355 C210.071464,37.5645161 210.358201,36.0322581 210.364644,33.4451613 C210.364644,30.8645161 210.08113,29.3258065 209.5141,28.8290323 C208.947071,28.3322581 207.046234,28.0935484 203.81159,28.1129032 C200.589833,28.1129032 198.688996,28.3516129 198.109079,28.8290323 C197.529163,29.3064516 197.245649,30.8451613 197.258536,33.4451613 C197.258536,36.0258065 197.545272,37.5548387 198.118745,38.0322581 C198.692218,38.5096774 200.593054,38.7677419 203.821255,38.8064516 L203.821255,38.7580645 Z" id="Shape" fill="#3B4C5E"></path>
                    <path d="M214.916987,40.4903226 L214.916987,26.4580645 L226.331674,26.4580645 C227.411063,26.4069985 228.462536,26.8105698 229.231255,27.5709677 C230.012755,28.5220256 230.394042,29.7402071 230.294435,30.9677419 C230.394064,32.1880198 230.008499,33.3983366 229.22159,34.3354839 C228.425524,35.101456 227.34699,35.5011555 226.244686,35.4387097 L216.995021,35.4387097 L216.995021,40.5193548 L214.916987,40.4903226 Z M217.004686,33.5225806 L226.254351,33.5225806 C226.800673,33.5459934 227.327661,33.3178202 227.684812,32.9032258 C228.080913,32.3393557 228.268842,31.6551159 228.216402,30.9677419 C228.26458,30.2821885 228.08072,29.6003703 227.694477,29.0322581 C227.331959,28.6070178 226.792674,28.3745831 226.235021,28.4032258 L217.004686,28.4032258 L217.004686,33.5225806 Z" id="Shape" fill="#3B4C5E"></path>
                    <polygon id="Shape" fill="#498F43" points="67.5989121 26.4290323 82.2224686 26.4290323 82.2224686 28.316129 75.9690377 28.316129 75.9690377 40.4612903 73.8813389 40.4612903 73.8813389 28.3064516 67.5989121 28.3064516"></polygon>
                    <polygon id="Shape" fill="#498F43" points="84.0878661 26.4290323 97.4839331 26.4290323 97.4839331 28.316129 86.2142259 28.316129 86.2142259 32.4096774 97.1359833 32.4096774 97.1359833 34.2967742 86.2142259 34.2967742 86.2142259 38.5741935 97.5322594 38.5741935 97.5322594 40.4612903 84.0878661 40.4612903"></polygon>
                    <polygon id="Shape" fill="#498F43" points="114.465816 26.4290323 117.365397 26.4290323 110.1841 33.4548387 117.365397 40.4612903 114.62046 40.4612903 108.627992 34.5193548 102.635523 40.4612903 99.8712552 40.4612903 107.052552 33.4451613 99.8712552 26.4290323 102.770837 26.4290323 108.618326 32.3516129"></polygon>
                    <polygon id="Shape" fill="#498F43" points="119.462762 26.4290323 121.55046 26.4290323 121.55046 32.3903226 133.603054 32.3903226 133.603054 26.4290323 135.690753 26.4290323 135.690753 40.4612903 133.603054 40.4612903 133.603054 34.2677419 121.55046 34.2677419 121.55046 40.4516129 119.462762 40.4516129"></polygon>
                    <path d="M147.202092,40.6451613 C145.153109,40.7374967 143.101144,40.548648 141.103305,40.083871 C140.042577,39.8078771 139.203134,38.9967417 138.889958,37.9451613 C138.604649,36.4665065 138.494349,34.959341 138.561339,33.4548387 C138.49414,31.9511653 138.597902,30.444717 138.870628,28.9645161 C139.191267,27.9049472 140.04164,27.0902056 141.112971,26.816129 C143.109846,26.3449416 145.162254,26.1527954 147.211757,26.2451613 C149.257552,26.1524934 151.30637,26.3413518 153.300879,26.8064516 C154.364304,27.0932811 155.204701,27.909125 155.523891,28.9645161 C155.809028,30.4497236 155.91932,31.9632753 155.85251,33.4741935 C155.918343,34.9682175 155.814583,36.4648955 155.543222,37.9354839 C155.235836,38.9945213 154.395369,39.8139962 153.329874,40.0935484 C151.321949,40.5562751 149.26025,40.7418658 147.202092,40.6451613 L147.202092,40.6451613 Z M147.202092,38.7580645 C150.423849,38.7580645 152.318243,38.5193548 152.885272,38.0419355 C153.452301,37.5645161 153.739038,36.0322581 153.745481,33.4451613 C153.745481,30.8645161 153.461967,29.3258065 152.894937,28.8290323 C152.327908,28.3322581 150.427071,28.0935484 147.192427,28.1129032 C143.970669,28.1129032 142.069833,28.3516129 141.489916,28.8290323 C140.91,29.3064516 140.626485,30.8451613 140.639372,33.4451613 C140.639372,36.0258065 140.926109,37.5548387 141.499582,38.0322581 C142.073054,38.5096774 143.973891,38.7580645 147.202092,38.7774194 L147.202092,38.7580645 Z" id="Shape" fill="#498F43"></path>
                    <polygon id="_Составной_контур_" fill="#498F43" points="15.1261506 22.6935484 40.1978661 22.6935484 40.1978661 24.7064516 25.1297071 24.7064516 25.1297071 41.1580645 22.887364 41.1580645 22.887364 24.7064516 15.1551464 24.7064516"></polygon>
                    <g id="_Группа_" transform="translate(26.096234, 26.129032)" fill="#3C4D5F">
                        <path d="M14.3625941,7.52903226 C14.4405555,9.51050348 13.6966584,11.4360438 12.3072465,12.8491965 C10.9178346,14.2623493 9.00661613,15.0372923 7.02665272,14.9903226 L0.647573222,14.9903226 L0.647573222,0.241935484 L7.02665272,0.241935484 C8.98118458,0.177385451 10.8758506,0.922424381 12.2641413,2.30147155 C13.6524321,3.68051872 14.4115492,5.57159327 14.3625941,7.52903226 L14.3625941,7.52903226 Z M7.02665272,2.69032258 L3.05422594,2.69032258 L3.05422594,12.5806452 L7.03631799,12.5806452 C8.37831762,12.6319671 9.6796381,12.1138815 10.6200211,11.1538907 C11.5604041,10.1938999 12.0525251,8.88114912 11.975272,7.53870968 C12.0081649,6.22000705 11.4954001,4.94630063 10.5583422,4.01905997 C9.62128427,3.09181932 8.34322085,2.59345941 7.02665272,2.64193548 L7.02665272,2.69032258 Z" id="_Составной_контур_2"></path>
                    </g>
                    <g id="_Группа_2" transform="translate(3.866109, 13.548387)" stroke="#498F43" stroke-width="1.28709677">
                        <path d="M43.8223431,0.890322581 C49.824477,0.890322581 52.2794561,5.1483871 49.2832218,10.3548387 L31.0738494,41.9322581 C28.0679498,47.1387097 23.1579916,47.1387097 20.1617573,41.9322581 L1.93305439,10.3548387 C-1.07284519,5.1483871 1.39179916,0.890322581 7.39393305,0.890322581 L43.8223431,0.890322581 Z" id="Shape"></path>
                    </g>
                    <path d="M35.964477,12.5806452 C34.4800228,10.469469 32.062572,9.21337221 29.4839121,9.21337221 C26.9052522,9.21337221 24.4878015,10.469469 23.0033473,12.5806452 L35.964477,12.5806452 Z" id="Shape" fill="#3C4D5F"></path>
                    <g id="_Группа_3" transform="translate(11.598326, 0.000000)" fill="#3C4D5F">
                        <path d="M0.560585774,12.5806452 L1.5851046,12.5806452 C1.5851046,12.5806452 5.67351464,0.967741935 17.8807531,0.967741935 C30.0879916,0.967741935 34.1764017,12.5806452 34.1764017,12.5806452 L35.2009205,12.5806452 C35.2009205,12.5806452 31.1415063,0 17.8807531,0 C4.62,0 0.560585774,12.5806452 0.560585774,12.5806452 L0.560585774,12.5806452 Z" id="_Контур_"></path>
                    </g>
                    <path d="M15.1938075,10.9548387 L14.4979079,12.5806452 L19.688159,12.5806452 C21.6357316,8.98755371 25.3912388,6.74997799 29.4742469,6.74997799 C33.5572549,6.74997799 37.3127621,8.98755371 39.2603347,12.5806452 L44.460251,12.5806452 L43.7740167,10.9064516 L40.9904184,11.3032258 C40.6794876,10.7599438 40.3306723,10.239297 39.946569,9.74516129 L41.3383682,7.33548387 L39.8885774,5.9516129 L37.5012552,7.37419355 C37.0520886,7.02165238 36.5807389,6.6984044 36.0901255,6.40645161 L36.4767364,3.6483871 L34.6016736,2.90322581 L32.9199163,5.12903226 C32.3169076,4.96678637 31.7032645,4.84713727 31.0835146,4.77096774 L30.3682845,2.1 L28.3385774,2.1 L27.6620084,4.79032258 C27.1012535,4.86781595 26.54599,4.98094762 25.9995816,5.12903226 L24.3178243,2.90322581 L22.4524268,3.67741935 L22.8487029,6.46451613 C22.2970305,6.76531914 21.7673362,7.10487892 21.2635983,7.48064516 L18.8859414,6.08709677 L17.4651464,7.52903226 L18.8859414,9.91935484 C18.5339714,10.3691804 18.211135,10.841114 17.9194142,11.3322581 L15.1938075,10.9548387 Z" id="Shape" fill="#3C4D5F"></path>
                    <path d="M18.7119665,49.8677419 C18.3311269,50.7222599 17.3675552,51.1511626 16.4788129,50.8617578 C15.5900707,50.5723529 15.0628159,49.6579862 15.2568584,48.7426407 C15.4509009,47.8272951 16.3036535,47.2062096 17.2331799,47.3032258 L16.5082845,46.0451613 C16.2283788,46.0660229 15.9473115,46.0660229 15.6674059,46.0451613 C15.4741004,46.0451613 15.2711297,45.9870968 15.2517992,45.7064516 C15.209981,45.4827328 15.314863,45.2571475 15.5127615,45.1451613 C15.6734753,45.160706 15.8353113,45.160706 15.9960251,45.1451613 L15.1068201,43.6064516 C13.8266003,43.296339 12.7282695,42.476455 12.0659563,41.3365021 C11.403643,40.1965492 11.2347396,38.8353093 11.5983264,37.5677419 L10.7284519,36.0580645 C10.5959309,36.2798982 10.4765208,36.5093246 10.3708368,36.7451613 C10.2645188,36.9870968 10.0035565,36.8806452 9.7909205,36.7451613 C9.57828452,36.6096774 9.59761506,36.4064516 9.65560669,36.2225806 C9.7901307,35.8352708 9.97538757,35.4675456 10.2065272,35.1290323 L9.50096234,33.8709677 C9.12813386,34.7329646 8.163768,35.1720379 7.26990074,34.8867644 C6.37603348,34.6014908 5.84332129,33.6846321 6.03747043,32.7656105 C6.23161957,31.846589 7.08949908,31.2242405 8.02217573,31.3258065 L5.9634728,27.7548387 C5.81849372,27.8419355 5.81849372,28.0935484 5.9634728,28.4612903 C6.18577406,29.1096774 5.9634728,29.1580645 5.44154812,29.0032258 C4.69732218,28.7806452 4.59100418,28.9064516 4.91962343,29.7096774 C5.1709205,30.3193548 4.98728033,30.3580645 4.50401674,30.2709677 C3.74046025,30.1354839 3.64380753,30.2709677 4.04008368,31.016129 C4.34937238,31.5967742 4.24305439,31.7806452 3.68246862,31.683871 C3.12188285,31.5870968 2.88991632,31.8483871 3.28619247,32.4580645 C3.57615063,32.9032258 3.56648536,33.183871 3.0348954,33.2032258 C2.50330544,33.2225806 2.36799163,33.5032258 2.76426778,34.0258065 C3.16054393,34.5483871 3.13154812,34.7419355 2.6192887,34.8580645 C2.10702929,34.9741935 1.97171548,35.2645161 2.46464435,35.7387097 C2.95757322,36.2129032 2.81259414,36.4064516 2.3776569,36.5709677 C1.94271967,36.7354839 1.73008368,37.0354839 2.31,37.4612903 C2.88991632,37.8870968 2.80292887,38.0806452 2.31,38.3419355 C1.81707113,38.6032258 1.91372385,39.0096774 2.4839749,39.3096774 C3.05422594,39.6096774 3.08322176,39.7451613 2.63861925,40.0935484 C2.01037657,40.5870968 2.03937238,40.7032258 2.81259414,41.0612903 C3.33451883,41.3225806 3.33451883,41.5064516 2.96723849,41.8354839 C2.59995816,42.1645161 2.56129707,42.6290323 3.28619247,42.8032258 C3.78878661,42.9096774 3.93376569,43.1516129 3.57615063,43.5580645 C3.21853556,43.9645161 3.20887029,44.4 3.95309623,44.5258065 C4.46535565,44.583871 4.61033473,44.816129 4.33970711,45.2612903 C3.98209205,45.8612903 4.1367364,46.1612903 4.84230126,46.1322581 C5.54786611,46.1032258 5.48020921,46.3935484 5.26757322,46.8677419 C4.98728033,47.4967742 5.26757322,47.7483871 5.84748954,47.6322581 C6.42740586,47.516129 6.53372385,47.7483871 6.3790795,48.3 C6.15677824,49.0645161 6.51439331,49.2 7.09430962,49.0064516 C7.67422594,48.8129032 7.7225523,49.0064516 7.64523013,49.5193548 C7.53891213,50.1870968 7.7225523,50.4870968 8.37979079,50.2548387 C8.83405858,50.0806452 9.02736402,50.2548387 9.01769874,50.7870968 C9.01769874,51.5129032 9.32698745,51.6387097 9.81991632,51.3290323 C10.3128452,51.0193548 10.4674895,51.2516129 10.5061506,51.8129032 C10.5448117,52.3741935 10.8057741,52.5774194 11.231046,52.2290323 C11.656318,51.8806452 11.9172803,51.9193548 12.0719247,52.6064516 C12.226569,53.2935484 12.5841841,53.2645161 12.8934728,52.8483871 C13.2027615,52.4322581 13.4830544,52.5290323 13.6763598,53.1193548 C13.8696653,53.7096774 14.1692887,53.883871 14.4979079,53.3419355 C14.8265272,52.8 15.0584937,53.0032258 15.3291213,53.4967742 C15.599749,53.9903226 15.9380335,54.0774194 16.1603347,53.4967742 C16.382636,52.916129 16.6049372,53.1 16.8948954,53.5548387 C17.1848536,54.0096774 17.590795,54.2322581 17.7841004,53.5548387 C17.9387448,53.0225806 18.1803766,53.0516129 18.5283264,53.4580645 C18.8762762,53.8645161 19.2725523,54.0483871 19.3885356,53.3225806 C19.5045188,52.5967742 19.6978243,52.6935484 20.1230962,53.1774194 C20.4033891,53.4967742 20.6063598,53.5741935 20.7416736,53.4677419 L18.7119665,49.8677419 Z M5.18058577,39.2225806 C4.69831628,38.3472938 5.00722676,37.2464692 5.87422108,36.7507616 C6.74121541,36.2550539 7.84508632,36.5481148 8.35288039,37.4088078 C8.86067447,38.2695009 8.58426228,39.3789533 7.73221757,39.9 C7.31044979,40.1514314 6.80536666,40.2223287 6.33080645,40.0967125 C5.85624624,39.9710964 5.45214515,39.659538 5.20958159,39.2322581 L5.18058577,39.2225806 Z M9.25933054,38.883871 C9.25933054,38.7193548 9.19167364,38.4483871 9.33665272,38.3806452 C9.4984898,38.2956693 9.69363968,38.3053415 9.84630404,38.4059048 C9.99896841,38.5064681 10.0850881,38.6820743 10.0712134,38.8645161 C10.1382518,39.6022772 10.290697,40.3297378 10.5254812,41.0322581 C10.5943044,41.157317 10.5959426,41.30859 10.529844,41.4351138 C10.4637454,41.5616375 10.3387101,41.6465672 10.1968619,41.6612903 C9.88757322,41.7387097 9.85857741,41.4193548 9.77158996,41.216129 C9.47182757,40.4808602 9.30807687,39.6971481 9.28832636,38.9032258 L9.25933054,38.883871 Z M6.76569038,44.4677419 C6.39530444,43.8273211 6.4468515,43.0265332 6.89628027,42.4390168 C7.34570905,41.8515005 8.10444388,41.5930464 8.81846768,41.7842463 C9.53249148,41.9754461 10.0610809,42.5786173 10.157602,43.312327 C10.2541232,44.0460367 9.89955327,44.7656817 9.25933054,45.1354839 C8.38645361,45.6396705 7.27067298,45.340889 6.76569038,44.4677419 L6.76569038,44.4677419 Z M11.2117155,43.5483871 C10.979749,43.2774194 10.9604184,43.083871 11.2117155,42.9387097 C11.4630126,42.7935484 11.6079916,42.9387097 11.7916318,43.0741935 C12.2768745,43.5858193 12.8296908,44.0286281 13.434728,44.3903226 C13.569892,44.45235 13.672934,44.5682205 13.7188487,44.7098156 C13.7647634,44.8514107 13.749354,45.0057877 13.6763598,45.1354839 C13.5507113,45.4258065 13.3187448,45.2806452 13.1254393,45.1354839 C12.3968745,44.7267512 11.7484566,44.1890028 11.2117155,43.5483871 L11.2117155,43.5483871 Z M10.4771548,48.3870968 C10.1067689,47.7466759 10.1583159,46.945888 10.6077447,46.3583717 C11.0571735,45.7708554 11.8159083,45.5124012 12.5299321,45.7036011 C13.2439559,45.8948009 13.7725453,46.4979722 13.8690665,47.2316819 C13.9655876,47.9653916 13.6110177,48.6850366 12.970795,49.0548387 C12.097918,49.5590254 10.9821374,49.2602439 10.4771548,48.3870968 L10.4771548,48.3870968 Z" id="Shape" fill="#3C4D5F"></path>
                    <g id="_Группа_4" transform="translate(0.000000, 25.161290)" fill="#3C4D5F">
                        <path d="M22.0271548,30.4451613 L21.5148954,29.5548387 C21.5148954,29.5548387 9.38497908,31.8387097 3.28619247,21.2903226 C-2.81259414,10.7419355 5.21924686,1.33548387 5.21924686,1.33548387 L4.70698745,0.44516129 C4.70698745,0.44516129 -4.16573222,10.2774194 2.45497908,21.7354839 C9.07569038,33.1935484 22.0271548,30.4451613 22.0271548,30.4451613 L22.0271548,30.4451613 Z" id="_Контур_2"></path>
                    </g>
                    <g id="_Группа_5" transform="translate(36.728033, 25.161290)" fill="#3C4D5F">
                        <path d="M17.5617992,0.425806452 L17.0495397,1.31612903 C17.0495397,1.31612903 25.1297071,10.6451613 18.9825941,21.2903226 C12.8354812,31.9354839 0.753891213,29.5935484 0.753891213,29.5935484 L0.241631799,30.483871 C0.241631799,30.483871 13.183431,33.2612903 19.8138075,21.7741935 C26.4441841,10.2870968 17.5617992,0.425806452 17.5617992,0.425806452 L17.5617992,0.425806452 Z" id="_Контур_3"></path>
                    </g>
                    <path d="M38.844728,53.1 C39.2989958,52.5774194 39.4439749,52.7516129 39.5696234,53.283871 C39.7435983,54.0387097 39.9079079,54.0677419 40.4394979,53.3806452 C40.8454393,52.8580645 40.9614226,53.0032258 41.1257322,53.4580645 C41.3963598,54.183871 41.5606695,54.1935484 42.005272,53.4580645 C42.3532218,52.9064516 42.5658577,52.8967742 42.7688285,53.4580645 C42.9717992,54.0193548 43.3004184,54.0677419 43.6387029,53.4580645 C43.8803347,52.983871 44.1316318,52.8580645 44.4119247,53.3032258 C44.6922176,53.7483871 45.0015063,53.7290323 45.2528033,53.1290323 C45.4364435,52.6741935 45.6877406,52.4612903 46.0453556,52.8387097 C46.4029707,53.216129 46.7122594,53.1967742 46.8862343,52.5387097 C47.0602092,51.8806452 47.2825105,51.9096774 47.6497908,52.2 C48.0170711,52.4903226 48.3746862,52.5290323 48.4520084,51.8129032 C48.5293305,51.0967742 48.7419665,51.0774194 49.1962343,51.3387097 C49.6505021,51.6 49.9694561,51.3387097 49.9211297,50.7193548 C49.8728033,50.1 49.9984519,49.983871 50.5203766,50.1967742 C51.2549372,50.4967742 51.35159,50.4193548 51.2935983,49.5483871 C51.2935983,48.9677419 51.4192469,48.8709677 51.8831799,49.0258065 C52.5114226,49.2290323 52.7723849,48.9774194 52.5500837,48.2709677 C52.3954393,47.7774194 52.5500837,47.5354839 53.0526778,47.6419355 C53.555272,47.7483871 53.9612134,47.5451613 53.6712552,46.8483871 C53.4682845,46.3741935 53.5939331,46.1322581 54.1158577,46.1419355 C54.8117573,46.1419355 54.9953975,45.8612903 54.6184519,45.2709677 C54.2415063,44.6806452 54.5314644,44.583871 55.0437238,44.5354839 C55.7202929,44.4677419 55.8169456,44.1193548 55.4110042,43.6548387 C55.0050628,43.1903226 55.1693724,42.9967742 55.7202929,42.8612903 C56.4935146,42.6677419 56.435523,42.2903226 55.97159,41.8935484 C55.5076569,41.4967742 55.6816318,41.3419355 56.1455649,41.1580645 C56.7738075,40.916129 56.967113,40.5967742 56.4161925,40.1903226 C56.0392469,39.8806452 56.0682427,39.6387097 56.5515063,39.3774194 C57.1894142,39.0290323 57.1314226,38.6806452 56.6094979,38.4096774 C56.0875732,38.1387097 56.2132218,37.8870968 56.6771548,37.5774194 C57.1410879,37.2677419 57.1894142,36.9387097 56.6771548,36.7354839 C56.1648954,36.5322581 56.0682427,36.2903226 56.5805021,35.816129 C57.0927615,35.3419355 56.8994561,35.0419355 56.3775314,34.9741935 C55.7009623,34.8967742 55.8072803,34.6258065 56.222887,34.1612903 C56.6384937,33.6967742 56.648159,33.3483871 56.0005858,33.3387097 C55.3530126,33.3290323 55.4303347,33.0193548 55.7202929,32.5451613 C56.010251,32.0709677 55.9135983,31.7225806 55.333682,31.8096774 C54.7537657,31.8967742 54.763431,31.616129 55.014728,31.1516129 C55.2660251,30.6870968 55.2466946,30.183871 54.5701255,30.3870968 C54.0385356,30.5225806 53.9418828,30.2903226 54.1158577,29.7967742 C54.2898326,29.3032258 54.2511715,28.8290323 53.5649372,29.1193548 C52.8787029,29.4096774 52.8690377,29.1193548 53.0720084,28.5580645 C53.2073222,28.1516129 53.1686611,27.9387097 53.0140167,27.8806452 L51.0809623,31.1903226 C52.1695079,32.3324351 52.9162479,33.7573829 53.236318,35.3032258 C53.5827413,36.6595264 53.4067722,38.0966857 52.7433891,39.3290323 C52.3857741,39.9774194 51.8638494,40.383871 51.1872803,40.1516129 C50.8437574,40.1125978 50.5472082,39.8928372 50.4095771,39.5752887 C50.2719459,39.2577402 50.3141954,38.8907691 50.5203766,38.6129032 C51.5508783,36.5645311 51.5508783,34.1483721 50.5203766,32.1 L47.3598326,37.5774194 C47.7269868,38.8436069 47.5621971,40.2049757 46.9035744,41.3466837 C46.2449516,42.4883917 45.1495383,43.3115567 43.8706695,43.6258065 L38.2261506,53.4387097 C38.3711297,53.5258065 38.593431,53.4 38.844728,53.1 L38.844728,53.1 Z M42.6335146,48.2612903 C42.9524686,47.4483871 43.5130544,47.0129032 44.1702929,47.2935484 C46.6156067,48.4548387 48.8482845,47.3709677 51.1196234,45.8032258 C51.5835565,45.4741935 52.0861506,45.0967742 52.559749,44.7387097 C51.1018729,47.1719858 48.8480032,49.0252172 46.1806695,49.983871 C45.1971345,50.3806447 44.0901398,50.3312262 43.1457741,49.8483871 C42.5671703,49.5512734 42.3379991,48.8412488 42.6335146,48.2612903 L42.6335146,48.2612903 Z" id="Shape" fill="#3C4D5F"></path>
                </g>
            </g>
        </g>
    </g>
</svg>