<?xml version="1.0" encoding="UTF-8" standalone="no"?>
<svg width="244px" height="61px" viewBox="0 0 244 61" version="1.1" xmlns="http://www.w3.org/2000/svg" xmlns:xlink="http://www.w3.org/1999/xlink">
    <!-- Generator: Sketch 39.1 (31720) - http://www.bohemiancoding.com/sketch -->
    <title>Group</title>
    <desc>Created with Sketch.</desc>
    <defs>
        <polygon id="path-1" points="58.8555063 30.3840412 58.8555063 0.135272727 1.17498728e-05 0.135272727 1.17498728e-05 30.3840412 58.8555063 30.3840412"></polygon>
        <polygon id="path-3" points="0.584096774 18.9425455 19.1283499 18.9425455 19.1283499 0.2232 0.584096774 0.2232 0.584096774 18.9425455"></polygon>
    </defs>
    <g id="Page-1" stroke="none" stroke-width="1" fill="none" fill-rule="evenodd">
        <g id="Group">
            <g id="Logo">
                <polyline id="Fill-1" fill="#468741" points="15.0981002 23.2344 40.1157388 23.2344 40.1157388 25.2438545 25.0486297 25.2438545 25.0486297 41.5937455 22.8430268 41.5937455 22.8430268 25.2438545 15.0981002 25.2438545 15.0981002 23.2344"></polyline>
                <path d="M33.0615635,29.2939636 L29.0918712,29.2939636 L29.0918712,39.1865455 L33.0615635,39.1865455 C36.373678,39.1865455 37.9895778,36.6933818 37.9895778,34.1605091 C37.9895778,31.4677091 35.9941467,29.2939636 33.0615635,29.2939636 L33.0615635,29.2939636 Z M40.383746,34.1605091 C40.383746,37.8700364 37.8501181,41.5996364 33.0615635,41.5996364 L26.697703,41.5996364 L26.697703,26.9005091 L33.0615635,26.9005091 C37.211746,26.9005091 40.383746,29.9321455 40.383746,34.1605091 L40.383746,34.1605091 Z" id="Fill-2" fill="#374550"></path>
                <path d="M47.594186,15.0050182 C53.5868086,15.0050182 56.0383757,19.2499636 53.0420644,24.4381091 L34.8693023,55.9051636 C31.8729911,61.0933091 26.9698569,61.0933091 23.9735456,55.9051636 L5.8005653,24.4381091 C2.80425403,19.2499636 5.25582111,15.0050182 11.2484436,15.0050182 L47.594186,15.0050182 L47.594186,15.0050182 Z" id="Stroke-3" stroke="#468741" stroke-width="1.28029091"></path>
                <path d="M35.8917889,13.1884364 C34.4581252,11.1619636 32.0975671,9.8376 29.4260072,9.8376 C26.754229,9.8376 24.3927979,11.1630545 22.9591342,13.1895273 L35.8917889,13.1884364" id="Fill-5" fill="#374550"></path>
                <path d="M12.1369267,13.1886545 L13.1596315,13.1886545 C13.1596315,13.1886545 17.2432487,1.57483636 29.4266619,1.57483636 C41.6150948,1.57483636 45.6888909,13.1893091 45.6888909,13.1893091 L46.7148694,13.1895273 C46.7148694,13.1895273 42.6543864,0.619418182 29.4257889,0.619418182 C16.3128623,0.619418182 12.1369267,13.1886545 12.1369267,13.1886545" id="Fill-6" fill="#374550"></path>
                <path d="M15.1637925,11.5385455 L14.4804615,13.1873455 L19.6607692,13.1893091 C21.663839,9.51032727 25.670415,7.12145455 30.1272343,7.40290909 C34.0847048,7.65294545 37.4251914,9.94778182 39.1916816,13.1895273 L44.371771,13.1890909 L43.6825474,11.5254545 L40.90361,11.9199273 C40.5899893,11.3736 40.2410125,10.8571636 39.862136,10.3708364 L41.250186,7.96930909 L39.8145581,6.55330909 L37.4299928,7.97236364 C36.9784401,7.63025455 36.5070268,7.31825455 36.0181538,7.03789091 L36.3994311,4.28792727 L34.5358211,3.516 L32.8605581,5.73010909 C32.2614705,5.56843636 31.6499428,5.44756364 31.0309946,5.37076364 L30.3142719,2.71221818 L28.2930877,2.71309091 L27.6149946,5.39192727 C27.0593381,5.46829091 26.5047728,5.58021818 25.9526082,5.72923636 L24.2670877,3.48632727 L22.4030411,4.25738182 L22.7982862,7.03592727 C22.2520143,7.34945455 21.734551,7.69789091 21.248297,8.07665455 L18.8467084,6.68901818 L17.429195,8.12443636 L18.8497639,10.5082909 C18.5075528,10.9599273 18.1954597,11.4312 17.9147943,11.9197091 L15.1637925,11.5385455" id="Fill-7" fill="#374550"></path>
                <g id="Group-12" transform="translate(0.000000, 25.963636)">
                    <mask id="mask-2" fill="white">
                        <use xlink:href="#path-1"></use>
                    </mask>
                    <g id="Clip-9"></g>
                    <path d="M10.459263,22.8582545 C9.95707692,21.9885818 10.2552021,20.8765091 11.1251342,20.3742545 C11.9950662,19.8722182 13.1074705,20.1702545 13.6096565,21.0399273 C14.1120608,21.9096 13.8139356,23.0216727 12.9440036,23.5237091 C12.0740716,24.0259636 10.9616673,23.7279273 10.459263,22.8582545 L10.459263,22.8582545 Z M11.192136,18.0800727 C10.9638497,17.8114909 10.9413703,17.6175273 11.2270555,17.4700364 C11.436136,17.3275636 11.6229553,17.424 11.8106476,17.6066182 C12.321127,18.1032 12.8390268,18.5866909 13.45361,18.9211636 C13.7761789,19.0968 13.8141538,19.3778182 13.6963005,19.6640727 C13.57561,19.9568727 13.3436136,19.8096 13.1461002,19.7022545 C12.4053703,19.2994909 11.7611055,18.7490182 11.192136,18.0800727 L11.192136,18.0800727 Z M6.70890877,18.9658909 C6.20672272,18.0962182 6.50484794,16.9841455 7.37477996,16.4818909 C8.24471199,15.9798545 9.35711628,16.2776727 9.85930233,17.1475636 C10.3617066,18.0172364 10.0635814,19.1293091 9.19364937,19.6313455 C8.32371735,20.1336 7.21131306,19.8355636 6.70890877,18.9658909 L6.70890877,18.9658909 Z M9.27287299,13.4212364 C9.26567084,13.2558545 9.202161,12.9872727 9.34947764,12.9237818 C9.68099463,12.7806545 10.0496136,12.9209455 10.0871521,13.4024727 C10.144551,14.1373091 10.3182755,14.8498909 10.5452522,15.5605091 C10.664415,15.9338182 10.4970197,16.1186182 10.2200644,16.1864727 C9.9136458,16.2617455 9.87981753,15.9434182 9.79230054,15.7405091 C9.46798569,14.9871273 9.30713775,14.2101818 9.27287299,13.4212364 L9.27287299,13.4212364 Z M5.20147764,13.7541818 C4.69929159,12.8845091 4.99741682,11.7724364 5.86734884,11.2704 C6.73728086,10.7681455 7.84968515,11.0661818 8.3518712,11.9358545 C8.85427549,12.8055273 8.55615027,13.9176 7.68621825,14.4198545 C6.81628623,14.9218909 5.70388193,14.6238545 5.20147764,13.7541818 L5.20147764,13.7541818 Z M18.6793131,24.3475636 C18.5285045,24.6822545 18.2781753,24.9754909 17.935746,25.1731636 C17.065814,25.6752 15.9534097,25.3771636 15.4510054,24.5074909 C14.9488193,23.6378182 15.2469445,22.5257455 16.1168766,22.0237091 C16.4593059,21.8260364 16.8384007,21.7557818 17.203746,21.7926545 L16.4811306,20.5416 C16.207449,20.5533818 15.9294025,20.5464 15.6465546,20.5169455 C15.4564615,20.4970909 15.2478175,20.4632727 15.2270841,20.1763636 C15.212025,19.9688727 15.2397424,19.7746909 15.4872343,19.6176 C15.6483005,19.6477091 15.8091485,19.6579636 15.9702147,19.6566545 L15.0826047,18.1197818 C13.9357174,17.8536 12.8298605,17.0866909 12.127542,15.9327273 C11.3896494,14.7200727 11.240805,13.2898909 11.6037496,12.096 L10.7322898,10.5872727 C10.6017782,10.8052364 10.4793417,11.0304 10.3719642,11.2684364 C10.2626225,11.5117091 10.004,11.4061091 9.79710197,11.2954909 C9.54808229,11.1621818 9.5993703,10.9551273 9.66288014,10.7698909 C9.79993918,10.3697455 9.98654025,10.0104 10.2087156,9.68050909 L9.48631843,8.42967273 C9.33550984,8.76414545 9.08496243,9.05738182 8.74253309,9.25505455 C7.87260107,9.75709091 6.76019678,9.45905455 6.25801073,8.58938182 C5.75560644,7.71970909 6.05373166,6.60763636 6.92366369,6.1056 C7.26609302,5.90792727 7.64518784,5.83767273 8.01053309,5.87432727 L5.95399284,2.31338182 C5.80929517,2.39672727 5.81147764,2.64829091 5.93958855,3.01810909 C6.16438283,3.6672 5.9430805,3.71258182 5.4205975,3.55461818 C4.67943113,3.33076364 4.57620036,3.45709091 4.90400716,4.25869091 C5.15171735,4.8648 4.97297317,4.89992727 4.48955635,4.81527273 C3.72634705,4.68174545 3.6357746,4.81854545 4.02665474,5.55774545 C4.33263685,6.13592727 4.2318068,6.31876364 3.66611091,6.22538182 C3.0048229,6.11629091 2.87518426,6.38574545 3.26781038,6.99861818 C3.55393202,7.44523636 3.54301968,7.72363636 3.01486225,7.73978182 C2.41162791,7.75832727 2.34833631,8.03825455 2.74663685,8.55883636 C3.04367084,8.94676364 3.10936315,9.2688 2.60150268,9.38334545 C2.04911986,9.50814545 1.95592844,9.78392727 2.44501968,10.2580364 C2.84746691,10.6481455 2.79028623,10.9189091 2.3599034,11.0873455 C1.8681932,11.2797818 1.71389267,11.5505455 2.29464758,11.9707636 C2.77981038,12.3218182 2.78264758,12.5858182 2.32913059,12.8504727 C1.73484436,13.1973818 1.93672272,13.5124364 2.5024186,13.7895273 C2.95353488,14.0105455 3.09648658,14.2206545 2.6560644,14.5664727 C2.03362433,15.0547636 2.05392129,15.1712727 2.82869767,15.5570182 C3.34725224,15.8151273 3.3494347,15.9981818 2.98561717,16.3296 C2.49892665,16.7731636 2.58447943,17.1213818 3.30644007,17.28 C3.80884436,17.3904 3.9496136,17.6245091 3.59845438,18.0274909 C3.16610733,18.5234182 3.22918068,18.8646545 3.9705653,18.9554182 C4.47711628,19.0173818 4.62727013,19.2436364 4.35926297,19.6913455 C4.00330233,20.2863273 4.16087657,20.5876364 4.86406798,20.5594909 C5.48759928,20.5346182 5.49894812,20.8219636 5.28812165,21.2945455 C5.01051163,21.9172364 5.25647585,22.1709818 5.86778533,22.0555636 C6.4380644,21.9475636 6.55700894,22.1703273 6.39921646,22.7175273 C6.17922361,23.4802909 6.53278354,23.6153455 7.11266547,23.4222545 C7.55636136,23.2745455 7.73532379,23.4438545 7.66002862,23.9358545 C7.55810733,24.6017455 7.74034347,24.9246545 8.39464758,24.6728727 C8.84925581,24.4978909 9.04218605,24.6460364 9.02909123,25.1991273 C9.01228623,25.9202182 9.34074776,26.0504727 9.83267621,25.7349818 C10.3307156,25.4155636 10.4828336,25.6536 10.5184079,26.2134545 C10.5568193,26.8162909 10.8145689,26.9729455 11.240805,26.6314909 C11.6535098,26.3007273 11.9267549,26.3269091 12.0793095,27.0050182 C12.2410304,27.7237091 12.5917531,27.6641455 12.9029732,27.2491636 C13.3084758,26.7082909 13.4926762,26.9271273 13.682551,27.5234182 C13.870898,28.1146909 14.1707692,28.2896727 14.5051234,27.7466182 C14.8117603,27.2480727 15.0673274,27.4099636 15.3311878,27.8991273 C15.6594311,28.5074182 15.9424973,28.4792727 16.1653274,27.9301091 C16.380737,27.3994909 16.612297,27.5334545 16.8940537,27.984 C17.2504508,28.5541091 17.5872057,28.6551273 17.7799177,27.9805091 C17.9309445,27.4520727 18.175381,27.48 18.5206476,27.8801455 C18.9466655,28.3734545 19.2657424,28.4690182 19.3770483,27.7429091 C19.467839,27.1512 19.6847764,27.1206545 20.1094848,27.5995636 C20.389932,27.9157091 20.5959571,27.9981818 20.7260322,27.8917091 L18.6793131,24.3475636 L18.6793131,24.3475636 Z" id="Fill-8" fill="#374550" mask="url(#mask-2)"></path>
                    <path d="M21.9855349,30.0722182 L21.4741825,29.1866182 C21.4741825,29.1866182 9.37152057,31.4583273 3.27981395,20.9103273 C-2.81429338,10.3577455 5.20933453,1.02392727 5.20933453,1.02392727 L4.69732737,0.135272727 C4.69732737,0.135272727 -4.16174955,9.93578182 2.45265832,21.3888 C9.00901252,32.7412364 21.9855349,30.0722182 21.9855349,30.0722182" id="Fill-10" fill="#374550" mask="url(#mask-2)"></path>
                    <path d="M54.1837138,0.153818182 L53.6717066,1.03963636 C53.6717066,1.03963636 61.6914061,10.3815273 55.5996995,20.9295273 C49.5053739,31.4818909 37.4077317,29.2016727 37.4077317,29.2016727 L36.8941968,30.0896727 C36.8941968,30.0896727 49.8135385,32.8594909 56.4279463,21.4064727 C62.9843005,10.0538182 54.1837138,0.153818182 54.1837138,0.153818182" id="Fill-11" fill="#374550" mask="url(#mask-2)"></path>
                </g>
                <path d="M42.5529016,48.708 C42.8752522,47.8974545 43.433746,47.4608727 44.0863041,47.7687273 C46.5300143,48.9222545 48.7554776,47.8492364 51.0176064,46.2861818 C51.4853095,45.9628364 51.9754919,45.5866909 52.4580358,45.2275636 C50.7788444,47.7002182 48.7633345,49.6234909 46.0928658,50.4519273 C45.0269481,50.7826909 43.9815456,50.8518545 43.0673095,50.3142545 C42.5245295,49.9950545 42.2462648,49.4797091 42.5529016,48.708 L42.5529016,48.708 Z M38.7711199,53.5363636 C39.2209267,53.0173091 39.3708623,53.1861818 39.495263,53.7174545 C39.6720429,54.4710545 39.8331091,54.4972364 40.363449,53.8128 C40.7645868,53.2952727 40.8846225,53.4322909 41.0528909,53.8933091 C41.3187156,54.6207273 41.4828372,54.6307636 41.9274061,53.9227636 C42.2755098,53.3688 42.4843721,53.3646545 42.6862504,53.9011636 C42.9223936,54.5282182 43.2205188,54.5055273 43.5550912,53.8592727 C43.798873,53.3882182 44.0457102,53.2586182 44.3237567,53.7076364 C44.6415242,54.2208 44.9156422,54.1354909 45.1672809,53.5304727 C45.3547549,53.0794909 45.6009374,52.8613091 45.9542791,53.2437818 C46.3383936,53.6596364 46.6238605,53.6024727 46.7901646,52.9420364 C46.9270054,52.3983273 47.1902111,52.3125818 47.5511914,52.6010182 C47.963678,52.9304727 48.2755528,52.9287273 48.349102,52.2157091 C48.4106476,51.6202909 48.6378426,51.4858909 49.0939785,51.7459636 C49.6915385,52.0872 49.863517,51.7546909 49.8207406,51.1265455 C49.7866941,50.6253818 49.897127,50.3965091 50.4169911,50.6050909 C51.1511735,50.8998545 51.2419642,50.8239273 51.188712,49.9603636 C51.1531377,49.3821818 51.310712,49.2890182 51.7795063,49.4382545 C52.4071843,49.6376727 52.666025,49.3896 52.4425403,48.6850909 C52.2869302,48.1950545 52.4194061,47.9561455 52.9440716,48.0586909 C53.589864,48.1850182 53.8539428,47.9596364 53.5617102,47.2725818 C53.3622326,46.8030545 53.4829231,46.5597818 54.0049696,46.5678545 C54.6983399,46.5787636 54.8807943,46.2916364 54.5047549,45.6968727 C54.1712737,45.1695273 54.4144007,45.0159273 54.9294633,44.9622545 C55.6075564,44.8913455 55.704458,44.5514182 55.298737,44.0799273 C54.9200787,43.6400727 55.0536458,43.4258182 55.6066834,43.2888 C56.3773131,43.0978909 56.3175134,42.7243636 55.8602862,42.3187636 C55.5106547,42.0085091 55.5676172,41.7687273 56.0313918,41.5880727 C56.659288,41.3432727 56.8480716,41.0240727 56.3026726,40.5835636 C55.9237961,40.2774545 55.9556601,40.0363636 56.4412594,39.7710545 C57.0746118,39.4252364 57.0228873,39.0757091 56.503678,38.8075636 C55.9781395,38.5361455 56.1082147,38.2852364 56.575263,37.9745455 C57.0785403,37.6398545 57.0853059,37.3383273 56.5763542,37.14 C56.0835528,36.948 55.9694097,36.6984 56.4805438,36.2273455 C57.0224508,35.7279273 56.7954741,35.4541091 56.2801932,35.3923636 C55.6090841,35.3116364 55.7064222,35.0428364 56.1280751,34.5802909 C56.5462361,34.1214545 56.5477639,33.7743273 55.9102648,33.7564364 C55.3251449,33.7400727 55.3373667,33.4378909 55.6291628,32.9650909 C55.9921073,32.3766545 55.8260215,32.1458182 55.2391556,32.2272 C54.6717138,32.3061818 54.671932,32.0386909 54.9213882,31.5693818 C55.2369732,30.9759273 55.1562218,30.6338182 54.4752916,30.8042182 C53.9421145,30.9377455 53.8441216,30.7121455 54.0180644,30.2131636 C54.2323828,29.5976727 54.1557782,29.2736727 53.4709195,29.5402909 C52.9130805,29.7573818 52.7779857,29.5850182 52.9805188,28.9778182 C53.1143041,28.5770182 53.0809123,28.3577455 52.9235564,28.2981818 L51.0219714,31.5918545 C52.0512236,32.6886545 52.8159606,34.0182545 53.1710483,35.6925818 C53.451932,37.0165091 53.4198497,38.3674909 52.6799928,39.7001455 C52.3205403,40.3474909 51.8056959,40.7544 51.1280394,40.5216 C50.4058605,40.2735273 50.0856923,39.7352727 50.4617317,38.9866909 C51.7022469,36.5177455 51.3172594,34.4437091 50.5014526,32.4927273 C50.4447084,32.5913455 47.28122,38.0690182 47.28122,38.0690182 C47.6240859,39.1950545 47.5132165,40.5368727 46.864805,41.7216 C46.18322,42.9669818 45.0166905,43.8115636 43.8010555,44.0943273 L38.15239,53.8756364 C38.2968694,53.9594182 38.5146798,53.8322182 38.7711199,53.5363636 L38.7711199,53.5363636 Z" id="Fill-13" fill="#374550"></path>
            </g>
            <g id="ÐéðÁÐàð¢ð¥ð¦ð_ð¥ÐÇ" transform="translate(67.656530, 20.290909)">
                <g id="Group-3" transform="translate(97.021686, 0.654545)">
                    <mask id="mask-4" fill="white">
                        <use xlink:href="#path-3"></use>
                    </mask>
                    <g id="Clip-2"></g>
                    <path d="M15.7824128,2.25818182 L5.03726107,2.25818182 L5.03726107,5.26647273 C5.03726107,6.41716364 4.94876156,7.78123636 4.77176253,9.35934545 C4.59410796,10.9374545 4.36466478,12.2498182 4.08474411,13.2964364 L15.7824128,13.2964364 L15.7824128,2.25818182 L15.7824128,2.25818182 Z M2.77757355,5.26647273 L2.77757355,0.2232 L18.0427559,0.2232 L18.0427559,13.2964364 L19.1283499,13.2964364 L19.1283499,18.9818182 L17.0456614,18.9818182 L17.0456614,15.3320727 L2.66678527,15.3320727 L2.66678527,18.9818182 L0.584096774,18.9818182 L0.584096774,13.2964364 L1.69197954,13.2964364 C1.97255577,12.3231273 2.22363216,10.9852364 2.44520872,9.28210909 C2.66678527,7.57832727 2.77757355,6.23978182 2.77757355,5.26647273 L2.77757355,5.26647273 Z" id="Fill-1" fill="#374450" mask="url(#mask-4)"></path>
                </g>
                <path d="M120.580912,9.21730909 L120.580912,13.9509818 L130.462702,13.9509818 C131.318852,13.9509818 131.965227,13.7336727 132.401169,13.2984 C132.836455,12.8637818 133.054754,12.2917091 133.054754,11.5841455 C133.054754,10.8916364 132.833177,10.3228364 132.389369,9.88101818 C131.946871,9.43854545 131.30443,9.21730909 130.462702,9.21730909 L120.580912,9.21730909 L120.580912,9.21730909 Z M132.500157,5.13687273 C132.500157,4.43978182 132.323814,3.90632727 131.969816,3.5352 C131.54174,3.09141818 130.863899,2.86887273 129.934982,2.86887273 L120.580912,2.86887273 L120.580912,7.18232727 L129.934982,7.18232727 C130.893399,7.18232727 131.560751,7.01541818 131.937038,6.68225455 C132.312669,6.34843636 132.500157,5.83330909 132.500157,5.13687273 L132.500157,5.13687273 Z M135.314442,11.5618909 C135.314442,13.0516364 134.904066,14.1617455 134.084626,14.8915636 C133.264531,15.6213818 132.064871,15.9866182 130.484335,15.9866182 L118.320569,15.9866182 L118.320569,0.833236364 L129.953338,0.833236364 C131.503718,0.833236364 132.692234,1.20305455 133.51954,1.94269091 C134.346847,2.68298182 134.7605,3.74792727 134.7605,5.13818182 C134.7605,6.66196364 134.191481,7.63789091 133.054754,8.06661818 C133.704406,8.28785455 134.220981,8.65636364 134.605134,9.17345455 C135.077787,9.80705455 135.314442,10.6036364 135.314442,11.5618909 L135.314442,11.5618909 Z" id="Fill-4" fill="#374450"></path>
                <path d="M147.521474,14.1722182 C151.007699,14.1722182 153.060888,13.9143273 153.68104,13.3972364 C154.301192,12.8801455 154.611268,11.2248 154.611268,8.43185455 C154.611268,5.62450909 154.30447,3.96261818 153.692184,3.44552727 C153.079243,2.92843636 151.022121,2.66923636 147.521474,2.66923636 C144.021482,2.66923636 141.96436,2.92843636 141.351419,3.44552727 C140.738478,3.96261818 140.43168,5.62450909 140.43168,8.43185455 C140.43168,11.2097455 140.742412,12.8611636 141.362564,13.3854545 C141.982716,13.9104 144.035904,14.1722182 147.521474,14.1722182 L147.521474,14.1722182 Z M147.521474,16.2078545 C144.376136,16.2078545 142.174793,16.0049455 140.919411,15.5991273 C139.664029,15.1939636 138.866222,14.4235636 138.526646,13.2879273 C138.289992,12.5057455 138.171992,10.8916364 138.171992,8.44298182 C138.171992,5.95112727 138.282781,4.33636364 138.505013,3.59869091 C138.843933,2.448 139.648951,1.66647273 140.919411,1.25345455 C142.18987,0.840436364 144.389903,0.634254545 147.521474,0.634254545 C150.667468,0.634254545 152.864878,0.837163636 154.113049,1.24232727 C155.360564,1.6488 156.162304,2.42574545 156.516958,3.57643636 C156.752956,4.35796364 156.870956,5.98058182 156.870956,8.44298182 C156.870956,10.9204364 156.760168,12.5286545 156.538591,13.2656727 C156.199015,14.4157091 155.401208,15.1939636 154.146482,15.5991273 C152.890444,16.0049455 150.682546,16.2078545 147.521474,16.2078545 L147.521474,16.2078545 Z" id="Fill-5" fill="#374450"></path>
                <path d="M161.789562,8.46523636 L171.803773,8.46523636 C172.454081,8.46523636 172.970656,8.24269091 173.354809,7.79629091 C173.738963,7.34989091 173.931039,6.64429091 173.931039,5.67818182 C173.931039,4.71141818 173.742896,4.00189091 173.365298,3.54894545 C172.989011,3.09469091 172.460636,2.86887273 171.781485,2.86887273 L161.789562,2.86887273 L161.789562,8.46523636 L161.789562,8.46523636 Z M159.529874,15.9866182 L159.529874,0.833236364 L171.892273,0.833236364 C173.236154,0.833236364 174.288971,1.23381818 175.050067,2.03301818 C175.810507,2.83352727 176.190727,4.04901818 176.190727,5.67818182 C176.190727,7.308 175.80264,8.51956364 175.027122,9.31156364 C174.25226,10.1048727 173.177155,10.5002182 171.803773,10.5002182 L161.789562,10.5002182 L161.789562,15.9866182 L159.529874,15.9866182 L159.529874,15.9866182 Z" id="Fill-6" fill="#374450"></path>
                <polyline id="Fill-7" fill="#468640" points="0 0.801818182 15.8414125 0.801818182 15.8414125 2.8368 9.0616944 2.8368 9.0616944 15.9545455 6.80200688 15.9545455 6.80200688 2.8368 0 2.8368 0 0.801818182"></polyline>
                <polyline id="Fill-8" fill="#468640" points="17.9018122 0.801818182 32.4131099 0.801818182 32.4131099 2.8368 20.1614998 2.8368 20.1614998 7.26087273 31.9922455 7.26087273 31.9922455 9.29585455 20.1614998 9.29585455 20.1614998 13.9195636 32.4131099 13.9195636 32.4131099 15.9545455 17.9018122 15.9545455 17.9018122 0.801818182"></polyline>
                <polyline id="Fill-9" fill="#468640" points="50.7580752 0.801818182 53.8817802 0.801818182 46.1056231 8.38865455 53.8817802 15.9545455 50.913441 15.9545455 44.4215102 9.53934545 37.930235 15.9545455 34.9389515 15.9545455 42.7157641 8.37818182 34.9389515 0.801818182 38.0849452 0.801818182 44.4215102 7.19410909 50.7580752 0.801818182"></polyline>
                <polyline id="Fill-10" fill="#468640" points="56.1637565 0.801818182 58.423444 0.801818182 58.423444 7.23861818 71.4728608 7.23861818 71.4728608 0.801818182 73.7332039 0.801818182 73.7332039 15.9545455 71.4728608 15.9545455 71.4728608 9.2736 58.423444 9.2736 58.423444 15.9545455 56.1637565 15.9545455 56.1637565 0.801818182"></polyline>
                <path d="M86.2063905,14.1408 C89.6919602,14.1408 91.7451488,13.8822545 92.365301,13.3651636 C92.9861087,12.8480727 93.2955292,11.1933818 93.2955292,8.39978182 C93.2955292,5.59243636 92.9893864,3.93054545 92.3764454,3.41345455 C91.7635043,2.89636364 89.7070379,2.63716364 86.2063905,2.63716364 C82.7057432,2.63716364 80.6486212,2.89636364 80.0363357,3.41345455 C79.4227391,3.93054545 79.1165964,5.59243636 79.1165964,8.39978182 C79.1165964,11.1776727 79.4266724,12.8297455 80.0468246,13.3533818 C80.6676322,13.8783273 82.7208209,14.1408 86.2063905,14.1408 L86.2063905,14.1408 Z M86.2063905,16.1757818 C83.0603968,16.1757818 80.859709,15.9728727 79.604327,15.5670545 C78.348945,15.1618909 77.5511383,14.3914909 77.2109069,13.2558545 C76.9749082,12.4743273 76.8562533,10.8595636 76.8562533,8.41156364 C76.8562533,5.91905455 76.9670416,4.30429091 77.1892737,3.56661818 C77.5288496,2.41592727 78.3332118,1.6344 79.604327,1.22138182 C80.8741311,0.808363636 83.0748189,0.602181818 86.2063905,0.602181818 C89.3523843,0.602181818 91.5491388,0.805745455 92.7979652,1.21090909 C94.0454806,1.61672727 94.8472206,2.39367273 95.2018742,3.54436364 C95.4378729,4.32589091 95.5558722,5.94850909 95.5558722,8.41156364 C95.5558722,10.8890182 95.445084,12.4965818 95.2235074,13.2336 C94.883276,14.3842909 94.0854692,15.1618909 92.8307428,15.5670545 C91.5747053,15.9728727 89.3668064,16.1757818 86.2063905,16.1757818 L86.2063905,16.1757818 Z" id="Fill-11" fill="#468640"></path>
            </g>
        </g>
    </g>
</svg>