<svg xmlns="http://www.w3.org/2000/svg" viewBox="0 0 112.15 134.68"><defs><style>.cls-1{fill:none;stroke:#4a9043;stroke-miterlimit:10;stroke-width:1.39px;}</style></defs><title>1</title><g id="Слой_2" data-name="Слой 2"><g id="Слой_1-2" data-name="Слой 1"><g id="Слой_2-2" data-name="Слой 2"><g id="Слой_1-2-2" data-name="Слой 1-2"><path class="cls-1" d="M52.45,86.79a27.4,27.4,0,0,0,3.62-13.92A27.69,27.69,0,1,0,.71,71.44q0,.61,0,1.22A25.7,25.7,0,0,0,3.85,85.46l25,40.69Z"/><circle class="cls-1" cx="28.34" cy="72.71" r="20.12"/><path class="cls-1" d="M111.45,23.67a23,23,0,0,0-46,.1h0A20.87,20.87,0,0,0,68,34.45L88.79,68.3l19.76-33.68A22.35,22.35,0,0,0,111.45,23.67Z"/><circle class="cls-1" cx="88.41" cy="23.91" r="16.71"/><polyline class="cls-1" points="82.52 82.07 89.2 75.12 95.52 81.43"/><path class="cls-1" d="M30.19,132.89s56,12.52,59.11-47.31"/></g></g></g></g></svg>