<svg xmlns="http://www.w3.org/2000/svg" viewBox="0 0 110.42 132.36"><defs><style>.cls-1{fill:none;stroke:#4a9043;stroke-miterlimit:10;stroke-width:1.39px;}</style></defs><title>2</title><g id="Слой_2" data-name="Слой 2"><g id="Слой_1-2" data-name="Слой 1"><g id="Слой_2-2" data-name="Слой 2"><g id="Слой_1-2-2" data-name="Слой 1-2"><path class="cls-1" d="M54.74,99.34"/><path class="cls-1" d="M65,131.24s0-12.72.24-17.63c.18-3.73,3.2-5.65,3.16-8,0-2,.17-29.13.24-38a6.42,6.42,0,0,1,.77-3.41c1.75-2.45,6.78-2.27,8.25-.49a7,7,0,0,1,1.07,4.08c.15,8.1.25,36.4.58,36.54s1.25-4.17,5.57-4.17,5.32,4.62,5.32,4.62a5.57,5.57,0,0,1,6.25-3.08c3.94.88,4.31,5.33,4.31,5.33a5.44,5.44,0,0,1,4.9-2.25,4.17,4.17,0,0,1,4.08,4.27v22.62Z"/><line class="cls-1" x1="55.44" y1="48.16" x2="55.44" y2="77.38"/><path class="cls-1" d="M60,110.46C23.49,110.91.7,85,.7,55a54.33,54.33,0,1,1,108.65,0c0,12.52-3.19,24-13.92,36.89"/><path class="cls-1" d="M86.76,85.51c.39-.35,2.52-3.06,2.52-3.06A43.76,43.76,0,1,0,11,55.58C11,79.75,32.51,101,60,99.19"/><circle class="cls-1" cx="55.08" cy="38.02" r="4.83"/></g></g></g></g></svg>