<svg xmlns="http://www.w3.org/2000/svg" viewBox="0 0 143.33 95.08"><defs><style>.cls-1{fill:none;stroke:#4a9043;stroke-miterlimit:10;stroke-width:1.39px;}</style></defs><title>3</title><g id="Слой_2" data-name="Слой 2"><g id="Слой_1-2" data-name="Слой 1"><g id="Слой_2-2" data-name="Слой 2"><g id="Слой_1-2-2" data-name="Слой 1-2"><path class="cls-1" d="M48.44,53.88c1.25-2.57-.53-6-4-7.68h0C41,44.54,37.24,45.28,36,47.87L23.75,73.23c-1.25,2.57.53,6,4,7.68h0c3.44,1.66,7.24.92,8.47-1.67Z"/><path class="cls-1" d="M66.17,61.95c1.15-2.39-.7-5.68-4.17-7.35h0c-3.44-1.66-7.15-1.06-8.35,1.39L42.36,79.47c-1.15,2.39.7,5.68,4.17,7.35h0c3.44,1.66,7.15,1.06,8.35-1.39Z"/><path class="cls-1" d="M84.22,69.28C85.3,67,83.4,63.87,80,62.2h0c-3.44-1.66-7.1-1.18-8.18,1.07L61.1,85.37c-1.09,2.25.82,5.41,4.26,7.08h0c3.44,1.66,7.1,1.18,8.18-1.07Z"/><path class="cls-1" d="M101.88,73.21c1-2-.71-4.75-3.72-6.21h0c-3-1.39-6.22-1-7.17.95l-9.38,19.4c-1,2,.71,4.75,3.72,6.21h0c3,1.39,6.22,1,7.17-.95Z"/><polyline class="cls-1" points="11.66 29.65 30.6 29.62 45.41 15.23"/><path class="cls-1" d="M130.81,14.13H110.49C107.15,11.35,96.42,2.26,91.56,1.48s-22.61-1.29-25,0C63,3.35,52.24,14.18,47.76,19.69,45,23,49.15,26,53.32,26.2s12.52-8.08,15.11-9.38,48.43,15.31,51,16.14a8.5,8.5,0,0,1,5.29,9.2,7.58,7.58,0,0,1-5.34,5.93s4.62,3.91,3,9.2c-1.54,4.76-6.89,5.05-6.89,5.05s4.17,4.17,2.66,8.71-7.4,4.94-7.4,4.94a7.18,7.18,0,0,1,1.14,8.43c-2.78,5.82-10.74,2-10.74,2"/><rect class="cls-1" x="134.29" y="12.74" width="8.35" height="50.1" rx="3.9" ry="3.9"/><rect class="cls-1" x="0.7" y="29.44" width="8.35" height="50.1" rx="3.9" ry="3.9"/></g></g></g></g></svg>