<svg xmlns="http://www.w3.org/2000/svg" viewBox="0 0 96.02 131.93"><defs><style>.cls-1{fill:none;stroke:#4a9043;stroke-miterlimit:10;stroke-width:1.39px;}</style></defs><title>4</title><g id="Слой_2" data-name="Слой 2"><g id="Слой_1-2" data-name="Слой 1"><g id="Слой_2-2" data-name="Слой 2"><g id="Слой_1-2-2" data-name="Слой 1-2"><path class="cls-1" d="M59.84,8.78H90.11c2.27,0,5.22.72,5.22,3V126.94c0,2.27-3,4.3-5.22,4.3H4.56A4.06,4.06,0,0,1,.7,127V11.77c0-2.27,1.59-3,3.85-3H36.19"/><path class="cls-1" d="M40.49,8A7.35,7.35,0,1,1,55.18,8"/><ellipse class="cls-1" cx="47.85" cy="6.86" rx="1.6" ry="1.8"/><path class="cls-1" d="M27.59,15.47"/><path class="cls-1" d="M67.9,12.65a4.44,4.44,0,0,1-4.17,4.47h-32a4.27,4.27,0,0,1-4.17-4.29"/><polyline class="cls-1" points="61.24 47.74 22.97 47.74 22.97 97.84 74.45 97.84 74.45 47.05"/><polyline class="cls-1" points="29.79 64.23 48.25 86.19 73.2 36.29"/></g></g></g></g></svg>